<mxfile host="app.diagrams.net" modified="2023-11-11T21:23:39.697Z" agent="Mozilla/5.0 (Macintosh; Intel Mac OS X 10_15_7) AppleWebKit/537.36 (KHTML, like Gecko) Chrome/119.0.0.0 Safari/537.36" etag="hBWKT-H7ZRSpmdhvXeA0" version="22.1.0" type="device">
  <diagram name="Страница — 1" id="-HxmSBmulutoMmKue4LQ">
    <mxGraphModel dx="1026" dy="572" grid="1" gridSize="10" guides="1" tooltips="1" connect="1" arrows="1" fold="1" page="1" pageScale="1" pageWidth="827" pageHeight="1169" math="0" shadow="0">
      <root>
        <mxCell id="0" />
        <mxCell id="1" parent="0" />
        <mxCell id="ODKjQ-sCagSUDkUFFcM--30" style="edgeStyle=orthogonalEdgeStyle;rounded=0;orthogonalLoop=1;jettySize=auto;html=1;endArrow=none;endFill=0;" parent="1" source="ODKjQ-sCagSUDkUFFcM--26" target="ODKjQ-sCagSUDkUFFcM--27" edge="1">
          <mxGeometry relative="1" as="geometry" />
        </mxCell>
        <mxCell id="ODKjQ-sCagSUDkUFFcM--26" value="Керівник" style="ellipse;whiteSpace=wrap;html=1;" parent="1" vertex="1">
          <mxGeometry x="145" y="340" width="70" height="40" as="geometry" />
        </mxCell>
        <mxCell id="ODKjQ-sCagSUDkUFFcM--31" style="edgeStyle=orthogonalEdgeStyle;rounded=0;orthogonalLoop=1;jettySize=auto;html=1;endArrow=none;endFill=0;" parent="1" source="ODKjQ-sCagSUDkUFFcM--27" target="ODKjQ-sCagSUDkUFFcM--28" edge="1">
          <mxGeometry relative="1" as="geometry" />
        </mxCell>
        <mxCell id="ODKjQ-sCagSUDkUFFcM--34" style="rounded=0;orthogonalLoop=1;jettySize=auto;html=1;endArrow=none;endFill=0;" parent="1" source="ODKjQ-sCagSUDkUFFcM--27" target="ODKjQ-sCagSUDkUFFcM--33" edge="1">
          <mxGeometry relative="1" as="geometry" />
        </mxCell>
        <mxCell id="ODKjQ-sCagSUDkUFFcM--38" style="edgeStyle=orthogonalEdgeStyle;rounded=0;orthogonalLoop=1;jettySize=auto;html=1;endArrow=none;endFill=0;" parent="1" source="ODKjQ-sCagSUDkUFFcM--33" target="ODKjQ-sCagSUDkUFFcM--35" edge="1">
          <mxGeometry relative="1" as="geometry">
            <Array as="points" />
          </mxGeometry>
        </mxCell>
        <mxCell id="ODKjQ-sCagSUDkUFFcM--27" value="1" style="ellipse;whiteSpace=wrap;html=1;" parent="1" vertex="1">
          <mxGeometry x="160" y="410" width="40" height="40" as="geometry" />
        </mxCell>
        <mxCell id="ODKjQ-sCagSUDkUFFcM--32" style="edgeStyle=orthogonalEdgeStyle;rounded=0;orthogonalLoop=1;jettySize=auto;html=1;endArrow=none;endFill=0;" parent="1" source="ODKjQ-sCagSUDkUFFcM--28" target="ODKjQ-sCagSUDkUFFcM--29" edge="1">
          <mxGeometry relative="1" as="geometry" />
        </mxCell>
        <mxCell id="ODKjQ-sCagSUDkUFFcM--41" value="" style="edgeStyle=orthogonalEdgeStyle;rounded=0;orthogonalLoop=1;jettySize=auto;html=1;endArrow=none;endFill=0;" parent="1" source="ODKjQ-sCagSUDkUFFcM--28" target="ODKjQ-sCagSUDkUFFcM--40" edge="1">
          <mxGeometry relative="1" as="geometry" />
        </mxCell>
        <mxCell id="ODKjQ-sCagSUDkUFFcM--28" value="2" style="ellipse;whiteSpace=wrap;html=1;" parent="1" vertex="1">
          <mxGeometry x="340" y="410" width="40" height="40" as="geometry" />
        </mxCell>
        <mxCell id="ODKjQ-sCagSUDkUFFcM--47" value="" style="edgeStyle=orthogonalEdgeStyle;rounded=0;orthogonalLoop=1;jettySize=auto;html=1;endArrow=none;endFill=0;" parent="1" source="ODKjQ-sCagSUDkUFFcM--29" target="ODKjQ-sCagSUDkUFFcM--46" edge="1">
          <mxGeometry relative="1" as="geometry" />
        </mxCell>
        <mxCell id="ODKjQ-sCagSUDkUFFcM--29" value="3" style="ellipse;whiteSpace=wrap;html=1;" parent="1" vertex="1">
          <mxGeometry x="515" y="410" width="40" height="40" as="geometry" />
        </mxCell>
        <mxCell id="ODKjQ-sCagSUDkUFFcM--33" value="Відділ виробництва" style="ellipse;whiteSpace=wrap;html=1;" parent="1" vertex="1">
          <mxGeometry x="140" y="470" width="80" height="60" as="geometry" />
        </mxCell>
        <mxCell id="ODKjQ-sCagSUDkUFFcM--39" value="" style="edgeStyle=orthogonalEdgeStyle;rounded=0;orthogonalLoop=1;jettySize=auto;html=1;endArrow=none;endFill=0;" parent="1" source="ODKjQ-sCagSUDkUFFcM--35" target="ODKjQ-sCagSUDkUFFcM--37" edge="1">
          <mxGeometry relative="1" as="geometry" />
        </mxCell>
        <mxCell id="ODKjQ-sCagSUDkUFFcM--35" value="Відділ якості" style="ellipse;whiteSpace=wrap;html=1;" parent="1" vertex="1">
          <mxGeometry x="230" y="480" width="60" height="40" as="geometry" />
        </mxCell>
        <mxCell id="ODKjQ-sCagSUDkUFFcM--37" value="Відділ безпеки" style="ellipse;whiteSpace=wrap;html=1;" parent="1" vertex="1">
          <mxGeometry x="230" y="540" width="60" height="40" as="geometry" />
        </mxCell>
        <mxCell id="ODKjQ-sCagSUDkUFFcM--43" value="" style="edgeStyle=orthogonalEdgeStyle;rounded=0;orthogonalLoop=1;jettySize=auto;html=1;endArrow=none;endFill=0;" parent="1" source="ODKjQ-sCagSUDkUFFcM--40" target="ODKjQ-sCagSUDkUFFcM--42" edge="1">
          <mxGeometry relative="1" as="geometry">
            <Array as="points">
              <mxPoint x="410" y="500" />
              <mxPoint x="410" y="500" />
            </Array>
          </mxGeometry>
        </mxCell>
        <mxCell id="ODKjQ-sCagSUDkUFFcM--40" value="Відділ маркетингу" style="ellipse;whiteSpace=wrap;html=1;" parent="1" vertex="1">
          <mxGeometry x="320" y="470" width="80" height="60" as="geometry" />
        </mxCell>
        <mxCell id="ODKjQ-sCagSUDkUFFcM--45" value="" style="edgeStyle=orthogonalEdgeStyle;rounded=0;orthogonalLoop=1;jettySize=auto;html=1;endArrow=none;endFill=0;" parent="1" source="ODKjQ-sCagSUDkUFFcM--42" target="ODKjQ-sCagSUDkUFFcM--44" edge="1">
          <mxGeometry relative="1" as="geometry" />
        </mxCell>
        <mxCell id="ODKjQ-sCagSUDkUFFcM--42" value="Відділ продажів" style="ellipse;whiteSpace=wrap;html=1;" parent="1" vertex="1">
          <mxGeometry x="420" y="475" width="60" height="50" as="geometry" />
        </mxCell>
        <mxCell id="ODKjQ-sCagSUDkUFFcM--44" value="&amp;nbsp;Відділ реклами" style="ellipse;whiteSpace=wrap;html=1;" parent="1" vertex="1">
          <mxGeometry x="420" y="540" width="60" height="50" as="geometry" />
        </mxCell>
        <mxCell id="ODKjQ-sCagSUDkUFFcM--50" value="" style="edgeStyle=orthogonalEdgeStyle;rounded=0;orthogonalLoop=1;jettySize=auto;html=1;endArrow=none;endFill=0;" parent="1" source="ODKjQ-sCagSUDkUFFcM--46" target="ODKjQ-sCagSUDkUFFcM--48" edge="1">
          <mxGeometry relative="1" as="geometry" />
        </mxCell>
        <mxCell id="ODKjQ-sCagSUDkUFFcM--46" value="Відділ фінансів" style="ellipse;whiteSpace=wrap;html=1;" parent="1" vertex="1">
          <mxGeometry x="505" y="475" width="60" height="50" as="geometry" />
        </mxCell>
        <mxCell id="ODKjQ-sCagSUDkUFFcM--52" value="" style="edgeStyle=orthogonalEdgeStyle;rounded=0;orthogonalLoop=1;jettySize=auto;html=1;endArrow=none;endFill=0;" parent="1" source="ODKjQ-sCagSUDkUFFcM--48" target="ODKjQ-sCagSUDkUFFcM--51" edge="1">
          <mxGeometry relative="1" as="geometry" />
        </mxCell>
        <mxCell id="ODKjQ-sCagSUDkUFFcM--48" value="Відділ бухгалтерії" style="ellipse;whiteSpace=wrap;html=1;" parent="1" vertex="1">
          <mxGeometry x="590" y="470" width="70" height="60" as="geometry" />
        </mxCell>
        <mxCell id="ODKjQ-sCagSUDkUFFcM--51" value="&amp;nbsp;Відділ інвестицій" style="ellipse;whiteSpace=wrap;html=1;" parent="1" vertex="1">
          <mxGeometry x="590" y="550" width="70" height="65" as="geometry" />
        </mxCell>
      </root>
    </mxGraphModel>
  </diagram>
</mxfile>
